<svg xmlns="http://www.w3.org/2000/svg" viewBox="0 0 97 84.13"><defs><style>.cls-1{fill:#0a0c11;}</style></defs><title>Asset 1</title><g id="Layer_2" data-name="Layer 2"><g id="Layer_1-2" data-name="Layer 1"><path class="cls-1" d="M95.79,0H1.21A1.14,1.14,0,0,0,0,1.05V61.86a1.14,1.14,0,0,0,1.21,1.05H40.83l6.5,20.44a1.27,1.27,0,0,0,2.34,0l6.5-20.44H95.79A1.14,1.14,0,0,0,97,61.86V1.05A1.14,1.14,0,0,0,95.79,0ZM94.58,60.81H55.24a1.2,1.2,0,0,0-1.17.77L48.5,79.12,42.93,61.58a1.2,1.2,0,0,0-1.17-.77H2.42V2.1H94.58Z" /></g></g></svg>