<svg xmlns="http://www.w3.org/2000/svg" xmlns:xlink="http://www.w3.org/1999/xlink" version="1.1" x="0px" y="0px" viewBox="0 0 100 125" style="enable-background:new 0 0 100 100;" xml:space="preserve"><path d="M89.125,10h-78c-0.5527344,0-1,0.4477539-1,1v57.8251953c0,0.5522461,0.4472656,1,1,1h32.6777344l5.3583984,19.4404297  C49.2802734,89.699707,49.6748047,90,50.125,90s0.8447266-0.300293,0.9638672-0.734375l5.3583984-19.4404297H89.125  c0.5527344,0,1-0.4477539,1-1V11C90.125,10.4477539,89.6777344,10,89.125,10z M88.125,67.8251953H55.6855469  c-0.4501953,0-0.8447266,0.300293-0.9638672,0.734375L50.125,85.2363281l-4.5966797-16.6767578  c-0.1191406-0.434082-0.5136719-0.734375-0.9638672-0.734375H12.125V12h76V67.8251953z"/></svg>