<svg xmlns="http://www.w3.org/2000/svg" xmlns:xlink="http://www.w3.org/1999/xlink" version="1.1" x="0px" y="0px" viewBox="0 0 66 82.5" enable-background="new 0 0 66 66" xml:space="preserve"><g><path d="M50.5,4.3c-1.3,2.9,0.9,6-5.9,7.6c-0.1-0.1-0.2-0.2-0.2-0.2c-0.2-0.1-0.3-0.2-0.5-0.3c1.4-0.3,2.3-0.7,0.7-1.2   c-1.2-0.3-2.4-0.3-3.6,0c-0.3-0.1-0.7-0.2-1-0.3c0.4-0.6-0.3-0.6-0.8-0.3c0,0-0.1,0.1-0.2,0.1c-1-0.2-2.1-0.3-3.2-0.4   C37,8.4,38.3,7.6,39.7,7c1.3-0.6,0.9-1.6-0.3-1.3c-1.8,0.5-3.5,1.4-4.7,2.8c0.6-1.7,1.2-3.4,1.7-5.1c0.5-1.5-0.7-2-1.5-0.7   c-1.2,1.8-1.8,4-1.7,6.1c-1.4-1.8-0.5-4.4-0.5-6.4c0-0.8-0.5-0.9-0.9-0.3c-1.6,2.2-1.3,5.2,0.4,7.1c-1.5-1-2.2-3-3.4-4.1   c-1.4-1.2,0,1.9,1.7,4.2c-1.2,0.1-2.3,0.2-3.4,0.4c-0.1,0-0.1-0.1-0.2-0.1c-0.5-0.3-1.2-0.3-0.8,0.3c-0.3,0.1-0.7,0.2-1,0.3   c-1.2-0.3-2.4-0.3-3.6,0c-1.6,0.5-0.7,0.9,0.7,1.2c-0.2,0.1-0.3,0.2-0.5,0.3c-0.1,0.1-0.2,0.1-0.2,0.2c-6.9-1.6-4.6-4.7-5.9-7.6   C13.8,0.7,5-0.7,3.9,3.9C3.8,4.1,4.1,4.2,4.3,4.1c2.1-2,4.9-1,5.6,1.1c1.7,4.9-7.2,9.5,6.1,16.1c-0.4,1.3-0.8,2.7-1.1,4.1   C10,27.7,7,39.1,7,44.8c-1.4,0.4-3.4,4,0.2,2.1c0.2,0.9,0.4,1.4,1.5,1.9c-0.3,2.1,0.5,2.2,1.7,0.5c0.7,0,1.5-0.7,1.9-0.9   c1.1,3.8,2.2-0.3,1.6-1.4c0.3-0.3,0.5-0.6,0.8-0.8c0.8,4.1,2,7.4,5.5,9.7c0.8,2.3,2,4.7,2.7,6.4c-5.6-3.2-7.3,1.2-7.3,2.7   c14.1-0.1,12.2,1.2,13.2-6.1c2.8,0.4,5.8,0.4,8.8,0c0.6,4.4,0.4,3.9,0.6,4.5c0.6,1.8,2.4,1.6,2.5,1.6L50.6,65   c-0.1-1.5-1.7-5.9-7.3-2.7c0.7-1.7,1.9-4.1,2.7-6.4c3.5-2.3,4.6-5.5,5.5-9.7c0.2,0.2,0.5,0.5,0.8,0.8c-0.6,1.3,0.6,5.1,1.6,1.4   c0.5,0.4,1.3,0.9,1.9,0.9c1.2,1.8,2,1.7,1.7-0.5c1.1-0.6,1.3-1,1.5-1.9c3.7,2,1.4-1.8,0.2-2.1c0-5.5-2.9-17-7.9-19.4   c-0.3-1.4-0.7-2.8-1.1-4.1c13.3-6.6,4.4-11.3,6.1-16.1c0.7-2.1,3.5-3.1,5.6-1.1c0.2,0.2,0.5,0,0.4-0.2C61-0.7,52.2,0.7,50.5,4.3z    M39,13.4c3,0,5.5,2.6,5.7,5.7c0.2,3.2-2,5.7-5,5.7c-3,0-5.5-2.6-5.7-5.7C33.8,16,36.1,13.4,39,13.4z M21.3,19.1   c0.2-3.2,2.8-5.7,5.7-5.7s5.2,2.6,5,5.7c-0.2,3.2-2.8,5.7-5.7,5.7C23.3,24.9,21.1,22.3,21.3,19.1z M44.7,39.6   c-2.5,3.2-6.9,5.1-11.7,5.1c-4.8,0-9.2-1.9-11.7-5.1c-1.8-2.3-2.4-5-1.8-7.6c0.2-0.6,0.6-1.1,1.2-1.5c0.8-0.5,1.9-0.6,2.9-0.3   c6.6,2,12.9,2,18.8,0.1c1-0.3,2-0.2,2.9,0.3c0.6,0.4,1.1,0.9,1.2,1.5C47.1,34.7,46.5,37.4,44.7,39.6z"/><path d="M44.8,31.5c-0.6-0.3-1.4-0.4-2.1-0.2c-0.4,0.1-0.7,0.2-1.1,0.3c0.3,0.2,0.5,0.5,0.5,0.9c0,0.4,0,0.7-0.1,0.9   c-0.5,0.7-1.9,1.1-2.5,0.6c-0.2-0.2-0.3-0.8-0.3-1.3c0-0.2,0.1-0.4,0.2-0.5c-0.4,0.1-0.8,0.2-1.2,0.2c0.2,0.2,0.4,0.5,0.4,0.8   c0,0.4,0,0.8-0.1,1c-0.6,0.7-2.1,0.9-2.8,0.3c-0.2-0.2-0.3-0.6-0.3-1.1c0-0.3,0.1-0.5,0.2-0.8c-0.4,0-0.8,0-1.2,0   c0.1,0.2,0.2,0.3,0.3,0.5c0.1,0.6,0.2,1.2-0.1,1.3c-0.7,0.4-1.5,1-3,0c-0.2-0.2-0.2-0.7-0.1-1.2c0-0.3,0.2-0.5,0.3-0.7   c-0.4,0-0.8,0-1.3-0.1c0.1,0.2,0.2,0.5,0.2,0.7c0,0.5,0,1-0.2,1.1c-0.8,0.7-2.5,0.4-3.1-0.4c-0.1-0.2-0.2-0.5-0.1-0.9   c0-0.4,0.2-0.7,0.4-0.9c-0.4-0.1-0.9-0.2-1.3-0.2c0.1,0.1,0.1,0.3,0.1,0.5c0,0.6,0,1.2-0.2,1.4c-0.6,0.5-1.9,0.1-2.4-0.6   c-0.1-0.2-0.1-0.5-0.1-0.9c0-0.4,0.2-0.7,0.5-0.9c-0.4-0.1-0.7-0.2-1.1-0.3c-0.3-0.1-0.5-0.1-0.8-0.1c-0.5,0-0.9,0.1-1.3,0.3   c-0.4,0.2-0.6,0.5-0.7,0.9c-0.6,2.3,0,4.7,1.6,6.7c0.5,0.6,1.1,1.2,1.7,1.7c-0.1-0.8-0.1-2,0.3-2.2c0.9-0.3,1.8,0.9,2.3,1.8   c0,0,0,0.1,0.1,0.2c0.2,0.7-0.3,1.3-0.8,1.5c0.5,0.3,1.1,0.5,1.6,0.8c0-0.1-0.1-0.2-0.1-0.3c-0.1-0.7-0.1-1.5,0.2-1.6   c1-0.5,2.5,0.1,3.1,0.9c0.1,0.2,0.1,0.5,0.1,0.9c0,0.4-0.2,0.7-0.5,0.9c0.5,0.1,0.9,0.1,1.4,0.2c-0.2-0.2-0.3-0.5-0.3-0.8   c0-0.5,0.1-0.9,0.2-1.1c0.8-0.7,2.2-0.7,3,0c0.2,0.2,0.3,0.6,0.3,1.1c0,0.3-0.1,0.6-0.2,0.8c0.5,0,0.9-0.1,1.4-0.2   c-0.3-0.2-0.4-0.5-0.5-0.9c0-0.4,0-0.7,0.1-0.9c0.6-0.8,2-1.3,2.8-0.8c0.3,0.2,0.3,0.9,0.3,1.5c0,0.1,0,0.2-0.1,0.4   c0.6-0.2,1.1-0.5,1.6-0.7c-0.6-0.2-1-0.8-0.8-1.5c0-0.1,0-0.1,0.1-0.2c0.5-0.9,1.5-2.2,2.4-1.8c0.4,0.2,0.4,1.3,0.3,2.2   c0.6-0.5,1.2-1,1.6-1.6c1.6-2,2.2-4.4,1.6-6.7C45.5,32,45.2,31.7,44.8,31.5z"/><path d="M38.4,20.8c1.1,0,2-0.9,2-2c0-0.4-0.1-0.7-0.3-1c-0.1,0.3-0.4,0.5-0.8,0.5c-0.5,0-0.8-0.4-0.8-0.8c0-0.2,0.1-0.4,0.3-0.6   c-0.1,0-0.2,0-0.4,0c-1.1,0-2,0.9-2,2C36.4,19.9,37.3,20.8,38.4,20.8z M37.8,18.8c0.3,0,0.5,0.2,0.5,0.5c0,0.3-0.2,0.5-0.5,0.5   c-0.3,0-0.5-0.2-0.5-0.5C37.3,19,37.5,18.8,37.8,18.8z"/><path d="M27.6,20.8c1.1,0,2-0.9,2-2c0-1.1-0.9-2-2-2c-0.1,0-0.3,0-0.4,0c0.2,0.2,0.3,0.4,0.3,0.6c0,0.5-0.4,0.8-0.8,0.8   c-0.3,0-0.6-0.2-0.8-0.5c-0.2,0.3-0.3,0.6-0.3,1C25.6,19.9,26.5,20.8,27.6,20.8z M28.2,18.8c0.3,0,0.5,0.2,0.5,0.5   c0,0.3-0.2,0.5-0.5,0.5c-0.3,0-0.5-0.2-0.5-0.5C27.8,19,28,18.8,28.2,18.8z"/></g></svg>