<svg xmlns="http://www.w3.org/2000/svg" xmlns:xlink="http://www.w3.org/1999/xlink" version="1.1" x="0px" y="0px" viewBox="0 0 100 125" enable-background="new 0 0 100 100" xml:space="preserve"><g><path fill="#2e9797" d="M37.273,17.738c2.616-1.525,6.204-2.57,11.154-2.57v0.001c0.006,0,0.012,0,0.018,0c0.006,0,0.012,0,0.018,0v-0.001   c4.952,0,8.541,1.045,11.157,2.572c1.394-3.759,0.074-6.561-0.229-7.34c-0.585-1.446-1.437-2.024-1.437-2.024l0.136,0.092   c-1.929-1.573-4.927-2.935-9.626-2.935c-0.006,0-0.012,0-0.018,0.001c-0.006,0-0.011-0.001-0.018-0.001   c-4.711,0-7.712,1.369-9.64,2.947l0.153-0.104c0,0-0.853,0.578-1.437,2.024C37.2,11.179,35.879,13.98,37.273,17.738z"/><path fill="#2e9797" d="M56.504,54.946c3.394-6.182,6.573-12.125,8.121-15.333c0.784-1.624,1.588-4.122,1.901-6.916   c0.116-1.035,0.214-4.688,0.088-5.596c-0.712-5.1-4.712-13.067-5.445-14.655c-0.246-0.532-0.64-1.304-1.275-2.141   c0,0,1.846,3.635,0.268,7.748c-0.794,2.634-1.879,5.157-3.114,7.617c-0.374,0.746-4.047,7.244-8.586,15.201   c-4.712-8.259-8.219-14.436-8.602-15.201c-1.235-2.46-2.32-4.984-3.114-7.617c-1.577-4.113,0.268-7.748,0.268-7.748   c-0.635,0.837-1.029,1.609-1.275,2.141c-0.764,1.656-5.082,10.247-5.518,15.292c-0.057,0.655,0.07,4.392,0.245,5.629   c0.357,2.521,1.095,4.753,1.816,6.246c6.088,12.62,32.362,58.236,32.362,58.236l3.976-6.871l8.269-0.459   C76.887,90.52,66.344,72.146,56.504,54.946z"/><path fill="#2e9797" d="M20.018,90.52l8.269,0.459l3.976,6.871c0,0,7.788-13.522,15.866-27.878c-2.756-4.899-5.539-9.884-8.054-14.455   C30.33,72.55,20.018,90.52,20.018,90.52z"/></g></svg>